HIERARCHY
ROOT Hips
{
  OFFSET -35.4901 99.2528 17.4586
  CHANNELS 6 Xposition Yposition Zposition Zrotation Xrotation Yrotation
  JOINT LeftUpLeg
  {
    OFFSET 8.64259 1.95398 -2.38835
    CHANNELS 3 Zrotation Xrotation Yrotation
    JOINT LeftLeg
    {
      OFFSET 43.7702 0 0
      CHANNELS 3 Zrotation Xrotation Yrotation
      JOINT LeftFoot
      {
        OFFSET 40.6238 0 0
        CHANNELS 3 Zrotation Xrotation Yrotation
        JOINT LeftToeBase
        {
          OFFSET 12.7242 0 0
          CHANNELS 3 Zrotation Xrotation Yrotation
          End Site
          {
            OFFSET 0 0 0
          }
        }
      }
    }
  }
  JOINT RightUpLeg
  {
    OFFSET -8.2249 1.95398 -2.59336
    CHANNELS 3 Zrotation Xrotation Yrotation
    JOINT RightLeg
    {
      OFFSET 43.5653 0 0
      CHANNELS 3 Zrotation Xrotation Yrotation
      JOINT RightFoot
      {
        OFFSET 40.6238 0 0
        CHANNELS 3 Zrotation Xrotation Yrotation
        JOINT RightToeBase
        {
          OFFSET 12.7242 0 0
          CHANNELS 3 Zrotation Xrotation Yrotation
          End Site
          {
            OFFSET 0 0 0
          }
        }
      }
    }
  }
  JOINT Spine
  {
    OFFSET 0.165834 0.87714 6.61349
    CHANNELS 3 Zrotation Xrotation Yrotation
    JOINT Spine1
    {
      OFFSET 7.38963 1.71661e-005 0
      CHANNELS 3 Zrotation Xrotation Yrotation
      JOINT Spine2
      {
        OFFSET 11.9445 1.14441e-005 0
        CHANNELS 3 Zrotation Xrotation Yrotation
        JOINT Spine3
        {
          OFFSET 14.7254 4.19617e-005 0
          CHANNELS 3 Zrotation Xrotation Yrotation
          JOINT Spine4
          {
            OFFSET 10.9679 0 0
            CHANNELS 3 Zrotation Xrotation Yrotation
            JOINT RightShoulder
            {
              OFFSET 2.46616 -1.6653 3.69651
              CHANNELS 3 Zrotation Xrotation Yrotation
              JOINT RightArm
              {
                OFFSET 13.0012 0 0
                CHANNELS 3 Zrotation Xrotation Yrotation
                JOINT RightForeArm
                {
                  OFFSET 28.7848 1.52588e-005 0
                  CHANNELS 3 Zrotation Xrotation Yrotation
                  JOINT RightHand
                  {
                    OFFSET 26.5688 1.52588e-005 0
                    CHANNELS 3 Zrotation Xrotation Yrotation
                    End Site
                    {
                      OFFSET 0 0 0
                    }
                  }
                }
              }
            }
            JOINT LeftShoulder
            {
              OFFSET 2.38034 -1.29275 -3.7523
              CHANNELS 3 Zrotation Xrotation Yrotation
              JOINT LeftArm
              {
                OFFSET 16.3182 6.10351e-005 0
                CHANNELS 3 Zrotation Xrotation Yrotation
                JOINT LeftForeArm
                {
                  OFFSET 27.0901 0 0
                  CHANNELS 3 Zrotation Xrotation Yrotation
                  JOINT LeftHand
                  {
                    OFFSET 24.5451 1.52588e-005 0
                    CHANNELS 3 Zrotation Xrotation Yrotation
                    End Site
                    {
                      OFFSET 0 0 0
                    }
                  }
                }
              }
            }
            JOINT Neck
            {
              OFFSET 5.0226 -0.0266342 0
              CHANNELS 3 Zrotation Xrotation Yrotation
              JOINT Head
              {
                OFFSET 6.69364 2.86102e-005 0
                CHANNELS 3 Zrotation Xrotation Yrotation
                End Site
                {
                  OFFSET 0 0 0
                }
              }
            }
          }
        }
      }
    }
  }
}
MOTION
Frames:	12
Frame Time:	0.0416667
28.9506 97.7972 17.5052 18.3976 -70.6682 14.7297 178.739 29.821 89.4111 -12.452 10.7621 -0.214767 65.9229 3.11539 -4.23323 13.6077 -3.35328 5.43528 173.068 27.6718 89.3328 -10.473 -14.5444 -0.595278 66.9354 -3.40146 -7.18833 16.0091 -0.803834 3.05378 0.408193 8.88071 -90.8658 9.11261 0.427068 -1.7449 -2.55947 0.349866 -1.762 -25.0875 0.93168 -1.53597 -5.07486 0.931673 -1.53596 85.811 -28.8169 -115.547 20.0031 -5.85671 -30.7396 -0.584505 -30.3421 -17.502 -23.6331 0.0086262 -9.11589 -89.985 -43.5604 77.2743 -12.0486 26.9929 -61.1637 -2.66241 19.906 -9.26473 -0.0691114 -0.164977 -8.07145 15.5981 23.2581 3.56455 -10.5075 20.438 18.3596 
29.1914 97.8546 17.5595 21.1579 -70.9069 17.6111 178.389 28.8293 89.1226 -11.4939 11.3836 0.255536 65.42 2.7869 -4.38404 13.6439 -3.76151 5.95751 172.845 27.1045 89.1089 -10.6445 -13.6865 -0.508961 67.0857 -3.42278 -6.69009 16.2123 -0.606986 2.64963 0.396522 8.97241 -90.9607 8.92834 0.362941 -1.92643 -2.74401 0.277829 -1.94053 -25.2699 0.925047 -1.72839 -5.25727 0.925059 -1.72839 85.7696 -28.3844 -115.852 20.6259 -5.07543 -28.6984 -0.397501 -29.5355 -16.9649 -25.6418 -0.202088 -7.53879 -89.9155 -42.9065 77.2249 -12.6151 25.7748 -58.7209 -3.57255 20.2391 -6.43282 0.146132 -0.168408 -7.91178 12.9102 22.1087 0.570645 -10.5295 20.1661 18.4082 
29.3381 97.8998 17.748 25.4979 -71.1247 22.0268 178.268 27.8838 88.7838 -11.0938 12.454 0.518628 65.2606 2.71981 -4.43331 13.566 -3.56103 5.70022 172.667 26.2337 88.8683 -10.9115 -12.6623 -0.524946 67.3626 -3.4869 -6.70422 16.4447 -0.494681 2.41172 0.370931 8.93981 -91.0551 8.99202 0.269181 -2.10758 -2.68061 0.176193 -2.11738 -25.204 0.890032 -1.92936 -5.1914 0.89004 -1.92937 85.7266 -28.492 -115.881 19.8879 -6.13935 -26.2103 2.4085 -27.8921 -14.567 -25.8433 0.086294 -8.7566 -89.8678 -43.9788 77.5639 -13.0202 24.3894 -56.3034 -4.77344 21.1515 -2.89459 -0.216832 -0.13046 -6.61239 10.1927 20.3545 -2.11051 -9.68295 19.2884 17.4841 
29.4213 98.004 18.0606 28.8498 -71.9074 25.6913 178.552 26.901 88.8341 -11.8084 13.7128 0.524179 65.5563 2.83284 -4.07805 13.3452 -3.74596 5.93089 172.655 24.5782 88.9945 -10.7582 -11.9898 -0.604554 67.2895 -3.40761 -6.1165 16.7895 0.219151 0.942371 0.393517 8.93422 -91.1327 9.00261 0.279598 -2.26216 -2.67028 0.179795 -2.27227 -25.1919 0.946392 -2.0737 -5.17922 0.946402 -2.07369 85.7689 -29.1417 -115.464 19.8349 -6.94383 -24.2156 3.65041 -28.7062 -12.7858 -27.0533 -0.247936 -7.07714 -89.6117 -44.402 78.0733 -13.7716 23.0266 -53.9088 -4.58699 22.2331 -1.63633 -0.89252 -0.103499 -5.4508 8.76175 19.0398 -4.0781 -8.96679 18.5207 17.3041 
29.5254 98.1057 18.4399 34.4782 -72.2264 31.6535 178.893 26.1059 88.8339 -12.7927 15.2005 0.467633 65.9307 3.0591 -4.27703 13.2298 -3.38529 5.4707 172.517 22.8338 89.0161 -10.5655 -10.6562 -0.602741 67.5133 -3.47561 -5.92752 16.9563 0.565066 0.22834 0.37809 8.89137 -91.2623 9.08644 0.190083 -2.51313 -2.58693 0.0793311 -2.51906 -25.1047 0.936379 -2.33999 -5.09204 0.936391 -2.34 86.2327 -29.5491 -114.357 20.4027 -7.35786 -22.5967 3.95649 -28.7373 -12.0343 -25.5385 -0.118881 -7.87041 -89.4997 -44.8713 78.3602 -13.2611 22.9234 -52.8684 -3.93186 21.7329 -3.03461 0.828826 -0.138955 -6.10295 7.49479 18.0518 -4.61022 -8.44416 17.7791 16.0633 
29.5338 98.1811 18.9057 43.3587 -72.4822 40.7749 179.797 25.0003 88.8254 -14.4092 18.3125 -0.108341 66.4336 3.32112 -3.77365 12.9861 -3.24457 5.28877 172.177 20.2969 88.9162 -10.4038 -8.852 -0.488218 68.0506 -3.64716 -5.64529 17.0275 0.785511 -0.226749 0.367151 8.8721 -91.371 9.12289 0.119214 -2.72367 -2.5509 -0.000729677 -2.72629 -25.0652 0.932013 -2.56214 -5.05253 0.932011 -2.56214 85.3789 -29.8762 -115.845 20.9617 -6.57203 -19.0276 2.93114 -29.816 -13.1161 -24.2155 -0.169002 -7.92243 -89.5091 -44.5584 78.2733 -13.6755 23.7477 -53.0738 -3.45457 21.5509 -4.39006 0.622572 -0.143083 -6.41068 6.77306 16.8566 -5.74863 -7.73656 17.0102 13.8236 
29.6453 98.111 19.4088 51.6921 -72.4625 49.2016 -179.624 24.1645 88.6968 -16.7317 20.6564 -0.227092 67.428 3.71313 -3.43446 13.1388 -3.10332 5.11194 171.574 18.4675 88.667 -11.5854 -7.57331 -0.132406 69.4966 -4.19512 -5.91176 16.6374 0.596199 0.203061 0.333046 8.79838 -91.4293 9.26885 0.0231906 -2.83342 -2.40519 -0.101476 -2.83171 -24.9173 0.87337 -2.69566 -4.90465 0.873373 -2.69566 85.0791 -30.662 -116.021 20.8188 -7.21933 -18.1383 3.17384 -28.7387 -12.6943 -24.4257 -0.19819 -7.5673 -89.3892 -44.7179 78.5009 -13.5208 25.709 -53.3556 -2.79157 19.8169 -7.54565 1.7949 -0.149209 -5.96543 6.7044 14.8743 -7.83054 -7.56757 15.515 13.1264 
29.7011 98.0485 20.0041 58.9473 -72.5191 56.827 -179.057 23.4219 89 -19.5049 22.356 -0.121354 68.648 4.15773 -3.40515 13.1131 -2.67322 4.56683 171.367 16.1912 88.8426 -12.0643 -6.18872 0.00877556 70.4585 -4.53572 -5.7853 16.8425 0.600745 0.16962 0.329126 8.6979 -91.5115 9.46801 -0.0241099 -2.9942 -2.20638 -0.155806 -2.99024 -24.7155 0.876499 -2.86323 -4.7029 0.876501 -2.86324 84.8308 -30.8231 -116.407 21.2323 -7.18765 -17.7262 3.84208 -30.0391 -12.7092 -24.3211 -0.210146 -7.70755 -89.4773 -45.5405 78.5477 -14.6202 27.5764 -53.5131 -2.02874 20.8351 -9.55825 1.3069 -0.143606 -6.02036 6.32745 13.3257 -8.9235 -7.3522 14.2521 12.2189 
29.8367 97.9661 20.6313 65.2102 -72.3315 63.6145 -178.531 22.7926 89.4745 -22.1544 24.018 0.0594184 69.7166 4.53242 -3.544 13.2109 -2.77781 4.70022 171.363 14.1121 89.2238 -12.4521 -5.08725 0.0550074 71.2434 -4.8423 -6.07544 16.8226 0.507356 0.360326 0.302899 8.5794 -91.5674 9.70321 -0.10482 -3.10031 -1.97141 -0.241108 -3.09271 -24.4784 0.831365 -2.9887 -4.46572 0.831362 -2.98872 84.2485 -32.7878 -116.509 19.8141 -7.50291 -18.1694 4.27168 -28.4116 -13.3332 -23.5624 0.17353 -9.71556 -89.383 -45.4888 78.6847 -17.9456 28.9683 -51.78 -0.912055 20.8243 -11.1343 -0.260216 -0.122751 -6.11856 6.31198 11.8911 -11.1671 -7.41949 13.2538 12.5343 
30.0437 97.9298 21.2349 70.0796 -72.6732 68.8316 -177.948 21.8497 89.9008 -24.0331 24.9552 0.0677428 70.5869 4.89821 -3.04512 13.3343 -2.3377 4.1419 171.303 12.2 89.4566 -12.7997 -4.55293 0.0960797 71.7681 -4.93661 -5.4168 17.3013 1.06306 -0.825659 0.29804 8.49546 -91.6555 9.86955 -0.156898 -3.27112 -1.80547 -0.300635 -3.26107 -24.3091 0.832956 -3.16728 -4.29643 0.832958 -3.16729 83.8923 -33.0929 -117.01 19.0948 -8.48751 -18.0442 2.87641 -29.1422 -15.3528 -25.5215 -0.234164 -7.2999 -88.9706 -46.3916 79.5264 -22.3096 28.0682 -48.6154 0.30995 20.7119 -10.7943 -1.57746 -0.100012 -5.56687 6.09855 10.4822 -11.5071 -7.24104 12.0021 11.1169 
30.1832 97.8476 21.8202 72.3658 -72.6282 71.4809 -177.486 21.5452 90.3595 -25.4402 25.7478 0.0370856 71.5932 5.26634 -3.06983 12.905 -2.2592 4.04614 171.428 11.1478 89.7892 -12.9677 -3.98064 0.0734162 72.4135 -5.23581 -5.72052 17.0981 0.731496 -0.123709 0.310604 8.30827 -91.8235 10.2394 -0.213904 -3.60352 -1.43652 -0.372189 -3.59066 -23.9331 0.878309 -3.50151 -3.92047 0.878306 -3.50152 83.3381 -33.6009 -117.763 17.2862 -8.84769 -16.6748 1.72169 -29.7756 -17.306 -25.9558 -0.0930443 -8.19432 -88.6417 -47.2785 80.2241 -22.9303 27.4951 -47.3535 -0.723044 20.8371 -8.30062 -0.0617855 -0.127571 -4.96658 4.97031 9.37329 -11.8528 -6.59105 10.9826 10.0257 
30.5174 97.8648 22.4124 76.4709 -72.3301 75.5264 -177.298 20.4101 90.3345 -26.2148 26.405 0.122055 72.1097 5.43744 -3.25836 12.4519 -2.15456 3.9212 170.986 9.55512 89.4507 -13.0628 -3.81418 0.314709 72.7971 -5.33325 -5.37991 17.3861 1.07525 -0.865134 0.277504 8.23891 -91.9724 10.3739 -0.350189 -3.88793 -1.30271 -0.520848 -3.8688 -23.7925 0.8336 -3.81373 -3.77989 0.833595 -3.81375 83.3671 -34.1666 -117.428 16.134 -8.11119 -15.6186 1.19085 -30.4395 -17.3349 -24.185 -0.00028596 -8.96017 -88.2693 -46.7355 80.6922 -21.7646 27.2111 -46.953 -2.2746 20.0959 -5.86855 1.71632 -0.176519 -6.86892 4.4719 8.09344 -13.9999 -6.22892 10.0842 10.2143 
